<svg id="Layer_1" data-name="Layer 1" xmlns="http://www.w3.org/2000/svg" viewBox="0 0 1686.5 74.85"><defs><style>.cls-1,.cls-2{fill:#640d0d;}.cls-1{fill-rule:evenodd;}</style></defs><title>logo-loyola-horizontal</title><path class="cls-1" d="M46.31,82.46V36.31c0-4.76-.74-12.6,4.66-14.61v-.32H30.75v.32c5.4,2,4.76,9.74,4.76,14.61V76.22c0,4.76.63,12.6-4.76,14.5V91H74.26L79.76,77h-.32a26,26,0,0,1-18.74,6.46l-14.4-1Z" transform="translate(-30.75 -19.57)"/><path class="cls-1" d="M120.14,19.59c-22.23-.53-39.7,16.3-39.7,36.41,0,21.7,17.68,36.73,38.64,36.73s39-15.67,39-37.26c0-19.05-15.67-36-37.9-35.88Zm-.74,7.62c16.72,0,26.57,14.92,26.57,30.38,0,15.77-10.27,27.52-26.36,27.52C103,85.11,92.52,69.87,92.52,55c0-16,10.48-27.84,26.89-27.84Z" transform="translate(-30.75 -19.57)"/><path class="cls-2" d="M190.28,60.55l26-39.17H197.79v.32c5.93,2.86,3.49,7.94,1.69,10.59L186.36,52,169.43,24.35c-1.38-2.22-4.55-3-7.94-3h-9.63c5.08,2.75,7.2,6.25,10.06,10.9l17.57,28.26V76.22c0,5,.74,11.85-4.45,14.5V91h20.64v-.32c-5.4-3.91-5.4-7.09-5.4-13.44V60.55Z" transform="translate(-30.75 -19.57)"/><path class="cls-1" d="M249.21,19.59c-22.23-.53-39.7,16.3-39.7,36.41,0,21.7,17.68,36.73,38.64,36.73s39-15.67,39-37.26c0-19.05-15.67-36-37.9-35.88Zm-.74,7.62c16.72,0,26.57,14.92,26.57,30.38,0,15.77-10.27,27.52-26.36,27.52-16.62,0-27.1-15.24-27.1-30.06,0-16,10.48-27.84,26.89-27.84Z" transform="translate(-30.75 -19.57)"/><path class="cls-1" d="M304.42,82.46V36.31c0-4.76-.74-12.6,4.66-14.61v-.32H288.86v.32c5.4,2,4.76,9.74,4.76,14.61V76.22c0,4.76.63,12.6-4.76,14.5V91h43.51L337.87,77h-.32a26,26,0,0,1-18.74,6.46l-14.4-1Z" transform="translate(-30.75 -19.57)"/><path class="cls-1" d="M387.25,64.89,393,79.82c2.86,7.41,3.7,8.58-1.48,10.9V91h21.7v-.32c-6-3.07-7.94-9-10.37-15l-22-54.3H364.06v.32c5.08,1.59,3.07,6,1.59,9.84L348,75.69c-2.33,6-4.13,12-10.27,15V91h19.48v-.32c-5.08-1.9-4.34-5-2.12-10.9l5.5-14.92Zm-3.07-7.83H363.32L373.8,30.38l10.38,26.67Z" transform="translate(-30.75 -19.57)"/><path class="cls-2" d="M493.34,91H508.9v-.32c-5.4-2-4.76-9.74-4.76-14.5V36.31c0-4.87-.64-12.6,4.76-14.61l-.11-.32H488.68v.32c5.29,2,4.66,9.74,4.66,14.5V68.07c0,3.81.11,6.46-2.22,9.63-3.49,5-9.53,7.41-15.46,7.41-10.9,0-16.83-6.56-16.83-20.64V36.21c0-4.76-.64-12.49,4.66-14.5v-.32H443.38v.32c5.4,2,4.66,9.74,4.66,14.5V64.47c0,7.62-.21,14.71,5.4,20.85,4.76,5.19,12.17,7.41,19.16,7.41,7.41,0,16.09-2.54,20.75-8.68v7Z" transform="translate(-30.75 -19.57)"/><path class="cls-2" d="M529.51,36.31l36.31,46c4.66,6,7.94,9.53,15.45,12.07V35c0-5.93,0-10.16,5.5-13.34v-.32H568.14v.32c5.61,3.18,5.5,7.41,5.5,13.34V75.16L534.9,26.25l-1.48-2.12a6.55,6.55,0,0,1-1.59-2.65v-.11H516.38v.32c5.5,3.18,5.5,7.41,5.5,13.34V77.28c0,5.93,0,10.16-5.61,13.44V91H535v-.32c-5.61-3.28-5.5-7.51-5.5-13.44v-41Z" transform="translate(-30.75 -19.57)"/><path class="cls-2" d="M597.53,76.22c0,4.76.64,12.6-4.66,14.5V91H613v-.32c-5.29-2-4.66-9.74-4.66-14.5V36.31c0-4.76-.64-12.6,4.66-14.61v-.32H592.88v.32c5.4,2,4.66,9.74,4.66,14.61V76.22Z" transform="translate(-30.75 -19.57)"/><path class="cls-2" d="M651.92,78.55l-16.83-46c-.85-2.33-2.86-7.51-2.86-9.84l.11-1.27H616.88v.32c4.66,3.6,6.25,9.74,8.26,15.14l16,43.29c3.07,8.36,5.5,9.21,12.91,14.08L682,21.39H666.21v.32c6.56,2.65,3,11.33.11,18.84l-14.4,38Z" transform="translate(-30.75 -19.57)"/><path class="cls-1" d="M704.16,57.06H712c3.28,0,7.73-.11,9.42,3h.32V48.8h-.32a10.82,10.82,0,0,1-4.66.64h-12.6V29.75A59.6,59.6,0,0,1,715,29c4.87,0,9.21.42,12.49,4.23h.32V20.86h-.32c-1.38.74-3.18.53-5,.53H688.6v.32c5.4,2,4.76,9.74,4.76,14.61V76.22c0,4.76.63,12.6-4.76,14.5V91h44.14l4.76-13.87h-.32a26.38,26.38,0,0,1-19.58,6.24l-13.44-1.27V57.06Z" transform="translate(-30.75 -19.57)"/><path class="cls-2" d="M741.16,21.39v.32c5.4,2,4.66,9.74,4.66,14.61V76.22c0,4.76.74,12.6-4.66,14.5V91h20.22v-.32c-5.4-1.9-4.76-9.63-4.76-14.5V28.8a55.54,55.54,0,0,1,7.2-.85c7.09-.32,13.65,4.13,13.65,11.75,0,9.95-9.84,13.87-18.31,15.14l9.74,14.92,12.91,16C785,89.66,788.47,91,794.08,91h9.74a74.26,74.26,0,0,1-17.15-14.82L771.43,57.06c8.68-2,16.83-9.31,16.83-18.63,0-9.63-7.73-17-21.91-17Z" transform="translate(-30.75 -19.57)"/><path class="cls-2" d="M843.69,22a53.14,53.14,0,0,0-15.77-2.33c-12.92,0-26.57,5.08-26.57,18.42,0,22.44,36.41,19.48,36.41,36,0,7.41-9.1,11-15.14,11a36.64,36.64,0,0,1-23.18-8.79l3.07,13.23a54.77,54.77,0,0,0,18.95,3.18c16.51,0,28.37-10.59,28.37-21.91,0-19.58-36.41-19.37-36.41-33.87,0-7.3,7.62-9.63,13.65-9.63s12.49,2.43,16.62,6.67V22Z" transform="translate(-30.75 -19.57)"/><path class="cls-2" d="M859.83,76.22c0,4.76.64,12.6-4.66,14.5V91h20.11v-.32c-5.29-2-4.66-9.74-4.66-14.5V36.31c0-4.76-.64-12.6,4.66-14.61v-.32H855.18v.32c5.4,2,4.66,9.74,4.66,14.61V76.22Z" transform="translate(-30.75 -19.57)"/><path class="cls-1" d="M910,29h9.53c3.49,0,7.73.53,9.1,4.23h.32l3.39-12.6H932a11.82,11.82,0,0,1-4.87.74H885a16.88,16.88,0,0,1-4-.74h-.32L877,33.24h.32c3.28-3.07,8-4.23,12.6-4.23h9.32V76.22c0,4.76.64,12.49-4.66,14.5V91h21v-.32c-5.61-3.28-5.5-7.41-5.5-13.44V29Z" transform="translate(-30.75 -19.57)"/><path class="cls-2" d="M969.89,60.55l26-39.17H977.4v.32c5.93,2.86,3.49,7.94,1.69,10.59L966,52,949,24.35c-1.38-2.22-4.55-3-7.94-3h-9.63c5.08,2.75,7.2,6.25,10.06,10.9l17.57,28.26V76.22c0,5,.74,11.85-4.45,14.5V91h20.64v-.32c-5.4-3.91-5.4-7.09-5.4-13.44V60.55Z" transform="translate(-30.75 -19.57)"/><path class="cls-2" d="M1043.59,36.31l36.31,46c4.66,6,7.94,9.53,15.45,12.07V35c0-5.93,0-10.16,5.51-13.34v-.32h-18.63v.32c5.61,3.18,5.51,7.41,5.51,13.34V75.16L1049,26.25l-1.48-2.12a6.56,6.56,0,0,1-1.59-2.65v-.11h-15.45v.32c5.5,3.18,5.5,7.41,5.5,13.34V77.28c0,5.93,0,10.16-5.61,13.44V91h18.74v-.32c-5.61-3.28-5.51-7.51-5.51-13.44v-41Z" transform="translate(-30.75 -19.57)"/><path class="cls-1" d="M1123.05,57.06h7.83c3.28,0,7.73-.11,9.42,3h.32V48.8h-.32a10.84,10.84,0,0,1-4.66.64h-12.6V29.75a59.6,59.6,0,0,1,10.8-.74c4.87,0,9.21.42,12.49,4.23h.32V20.86h-.32c-1.38.74-3.18.53-5,.53h-33.87v.32c5.4,2,4.76,9.74,4.76,14.61V76.22c0,4.76.64,12.6-4.76,14.5V91h44.14l4.76-13.87h-.32a26.38,26.38,0,0,1-19.58,6.24l-13.44-1.27V57.06Z" transform="translate(-30.75 -19.57)"/><path class="cls-2" d="M1202.5,40.76l11.64,36.41c3.49,10.9,4.23,10.37,14,17l22.33-72.83h-16.3v.32c8.26,2.86,4.76,11.43,2.86,17.47l-12,38.74-14.71-45.84c-1.48-4.66-2.22-8-1.59-10.69h-14.92v.32c5.82,3,3.7,9.84,1.69,16.3l-12.38,40.22L1167.35,29c-.64-2-1.69-5.29-1.27-7.62h-15.45v.32c5.29,3.6,6.88,10.48,8.78,16.3l12.49,39.06c3.49,10.9,4.44,10.16,14.08,17.15l16.51-53.46Z" transform="translate(-30.75 -19.57)"/><path class="cls-1" d="M1314.42,19.59c-22.23-.53-39.7,16.3-39.7,36.41,0,21.7,17.68,36.73,38.64,36.73s39-15.67,39-37.26c0-19.05-15.67-36-37.9-35.88Zm-.74,7.62c16.72,0,26.57,14.92,26.57,30.38,0,15.77-10.27,27.52-26.36,27.52-16.62,0-27.1-15.24-27.1-30.06,0-16,10.48-27.84,26.89-27.84Z" transform="translate(-30.75 -19.57)"/><path class="cls-2" d="M1354.7,21.39v.32c5.4,2,4.66,9.74,4.66,14.61V76.22c0,4.76.74,12.6-4.66,14.5V91h20.22v-.32c-5.4-1.9-4.76-9.63-4.76-14.5V28.8a55.53,55.53,0,0,1,7.2-.85c7.09-.32,13.66,4.13,13.66,11.75,0,9.95-9.84,13.87-18.31,15.14l9.74,14.92,12.91,16c3.17,3.92,6.67,5.29,12.28,5.29h9.74a74.29,74.29,0,0,1-17.15-14.82L1385,57.06c8.68-2,16.83-9.31,16.83-18.63,0-9.63-7.73-17-21.91-17Z" transform="translate(-30.75 -19.57)"/><path class="cls-1" d="M1432,82.46V36.31c0-4.76-.74-12.6,4.66-14.61v-.32h-20.22v.32c5.4,2,4.76,9.74,4.76,14.61V76.22c0,4.76.64,12.6-4.76,14.5V91H1460l5.5-14.08h-.32a26,26,0,0,1-18.74,6.46l-14.4-1Z" transform="translate(-30.75 -19.57)"/><path class="cls-1" d="M1484.81,57.06h7.83c3.28,0,7.73-.11,9.42,3h.32V48.8h-.32a10.83,10.83,0,0,1-4.66.64h-12.6V29.75a59.6,59.6,0,0,1,10.8-.74c4.87,0,9.21.42,12.49,4.23h.32V20.86h-.32c-1.38.74-3.18.53-5,.53h-33.87v.32c5.4,2,4.76,9.74,4.76,14.61V76.22c0,4.76.63,12.6-4.76,14.5V91h44.14l4.76-13.87h-.32a26.38,26.38,0,0,1-19.58,6.24l-13.44-1.27V57.06Z" transform="translate(-30.75 -19.57)"/><path class="cls-1" d="M1567.75,64.89l5.71,14.92c2.86,7.41,3.71,8.58-1.48,10.9V91h21.7v-.32c-6-3.07-7.94-9-10.37-15l-22-54.3h-16.72v.32c5.08,1.59,3.07,6,1.59,9.84l-17.68,44.14c-2.33,6-4.13,12-10.27,15V91h19.48v-.32c-5.08-1.9-4.34-5-2.12-10.9l5.5-14.92Zm-3.07-7.83h-20.85l10.48-26.67,10.37,26.67Z" transform="translate(-30.75 -19.57)"/><path class="cls-2" d="M1608.47,36.31l36.31,46c4.66,6,7.94,9.53,15.45,12.07V35c0-5.93,0-10.16,5.51-13.34v-.32H1647.1v.32c5.61,3.18,5.51,7.41,5.51,13.34V75.16l-38.74-48.91-1.48-2.12a6.57,6.57,0,0,1-1.59-2.65v-.11h-15.45v.32c5.5,3.18,5.5,7.41,5.5,13.34V77.28c0,5.93,0,10.16-5.61,13.44V91H1614v-.32c-5.61-3.28-5.5-7.51-5.5-13.44v-41Z" transform="translate(-30.75 -19.57)"/><path class="cls-2" d="M1711.11,22a53.13,53.13,0,0,0-15.77-2.33c-12.91,0-26.57,5.08-26.57,18.42,0,22.44,36.41,19.48,36.41,36,0,7.41-9.1,11-15.14,11a36.64,36.64,0,0,1-23.18-8.79l3.07,13.23a54.77,54.77,0,0,0,18.95,3.18c16.51,0,28.37-10.59,28.37-21.91,0-19.58-36.41-19.37-36.41-33.87,0-7.3,7.62-9.63,13.66-9.63S1707,29.75,1711.11,34V22Z" transform="translate(-30.75 -19.57)"/></svg>